<?xml version="1.0" encoding="UTF-8"?>
<svg
version="1.1" 
id="erh" 
xmlns="http://www.w3.org/2000/svg" 
xmlns:xlink="http://www.w3.org/1999/xlink" 
x="0px" 
y="0px"
viewBox="0 0 271 256" 
style="enable-background:new 0 0 271 256;" 
xml:space="preserve">
<style type="text/css">
	.st0{fill:none;}
</style>
  <g transform="matrix(1 0 0 -1 0 204)">
    <!-- <path
       fill="currentColor"
       d="M156 189q2 4 8 2q4 -2 12 -4h3q6 -2 5 -8q0 -2 -4 -1h-3q-3 1 -5 2q-11 2 -26 -4q-23 -10 -30 -18q-3 -4 0 -5q1 -1 4 -2q3 -2 9 -3q6 -4 8 
       -5q0 -3 -3 -4q-9 1 -17 -12q-23 -36 -58 -48q-9 -2 -6 -10q1 -17 9 -27q0 -2 2 -5q1 -2 2 -2q1 -7 7 -11q3 -2 0 -4q-2 -3 -6 0 q-11 5 -13 12
       q-2 2 1 7l1 1q-6 12 -7 29q-2 8 8 13q36 14 58 58q1 2 0 5v2q-12 10 13 24q2 2 -1 2q-49 -14 -60 -7q-6 1 0 2q51 4 80 15q7 2 9 6zM128 107v-
       1q3 0 10 -6q32 8 46 6q14 -1 26 -12l15 -15q1 -1 1 -4q0 -4 -3 -4l-2 -1q-5 -1 -5 -5q-9 -40 -47 -59q-4 -2 -8 0v1 q-17 6 -27 20q-1 -20 -2 
       -41q-1 -3 2 -5q6 -6 9 -12q0 -1 -3 -2q-3 0 -4 1q-9 11 -13 9q-3 0 -2 2v2q-1 4 8 4v49q-1 15 -1 29q0 13 1 29q-11 -2 -25 -6q-6 -3 -19 -4h-
       2q-5 0 -1 2q16 7 47 14q-1 4 -4 7l-1 1q1 1 4 1zM137 94q-3 0 -2 -12q-2 -23 -1 -51q8 -8 25 -14 q10 -6 16 0q30 17 33 63q2 9 -8 17q-15 11 
       -63 -3zM95 75q4 -5 5 -10q-1 -2 0 -4l1 -2q0 -3 3 -1q3 3 2 0q0 -3 -1 -6q-2 -2 0 -11q2 -8 -2 -7q-3 -1 -3 1q-4 3 -5 10q-1 4 1 6q2 10 -3 22q-2 4 2 2z"
       id="path1819"
       style="fill:none;stroke:#000000;stroke-opacity:1" /> -->
    <path class="pen line-erh-1"
       d="m 59.732515,161.28098 58.110425,11.30798 24.18651,5.33987 11.93619,4.39755 L 164,191 l 27.34479,-15.58405 0.94233,0.31411"/>
    <path class="pen line-erh-2"
       d="M 134.80491,174.47362 116,158 115,147 137,143 117.21472,136.46626 92.4,102.54233 68.527607,84.32393 46.225767,75.21472 53.764417,
       53.5411 64,37 48.110429,38.4638 78.579141,15.84785 v 0 h 0.628221"/>
    <path class="pen line-erh-3"
       d="M 78.893252,77.4135 184,106 203.59509,98.14479 223,71 212.39018,73.95828 203.9092,43.80368 184.74847,19.30307 161,7 134,31"/>
    <path class="pen line-erh-4"
       d="m 93,73 8,-14 2,-25 1,24 3.4773,6.84908"/>
    <path class="pen line-erh-5"
       d="M 129,92 131.03558,10.50798 129,-15 l -8,-4 h 13 l 10.22822,-19.80736"/>
  </g>
</svg>
