<?xml version="1.0" encoding="UTF-8"?>
<svg
version="1.1" 
id="hsu" 
xmlns="http://www.w3.org/2000/svg" 
xmlns:xlink="http://www.w3.org/1999/xlink" 
x="0px" 
y="0px"
viewBox="0 0 271 256" 
style="enable-background:new 0 0 271 256;" 
xml:space="preserve">
<style type="text/css">
	.st0{fill:none;}
</style>
  <g transform="matrix(1 0 0 -1 0 204)">
    <!-- <path
       fill="currentColor"
       d="m 143.31656,203.00914 q 2,-1.0279 2,-2.0558 0,-1.02791 -1,-2.05582 -9,-3.08372 -17,-28.78144 -12,-31.86517 -38.999996,-99.707136 -3,-6.167451 -5,
       -5.139542 -1,1.027908 2,7.195359 12,27.753529 25.999996,63.730329 19,49.33962 24,58.5908 3,9.25117 8,8.22325 z m 0,-19.53025 q 4,0 7,-6.16746 1,-1.0
       279 3,-2.0558 18,-20.55819 48,-60.64662 5,-7.19536 17,-8.22326 20,-3.08374 35,-7.195365 2,-2.055817 2,-3.083725 0,-1.027909 -2,0 -17,2.055817 -36,2.
       055817 -11,-1.027909 -17,10.279083 -33,45.22798 -51,64.75825 -7,10.27908 -16,4.11162 -3,-1.0279 -3,0 -1,2.05583 2,3.08374 2,0 5,1.0279 z m 16,-72.98
       153 q 8,5.13955 15,-3.08371 0,-2.05582 -6,-4.11164 l -6,-2.05581 q -13,-2.055815 -26,-8.223266 -8,-5.139544 -18,-1.027909 -3,0 -3,2.055818 0,1.02790
       8 3,2.055817 34,8.22327 41,14.3907 z m -19,-24.669787 q -2,4.111636 2,2.055817 l 9,-9.251177 q 1,-1.027908 3,-2.055817 15,2.055817 18,9.251177 1,3.0
       83725 7,2.055817 7,-2.055817 14,-7.195359 2,-2.055818 1,-4.111635 -1,-2.055817 -3,-1.027908 -13,2.055817 -37,-4.111635 -3,-5.139543 -5,-10.279085 -1
       ,-3.083727 -1,-4.111635 19,-26.725624 44,-45.227979 9,-7.1953597 23,-8.2232683 20,-4.1116345 36,-11.3069937 3,0 -1,-1.02791 -25,3.083726 -43,3.08372
       6 -10,0 -17,7.1953606 -3,2.0558171 -6,6.1674515 -26,29.8093509 -37,41.1163449 1,-57.562883 6,-82.232689 0,-6.167451 -4,-5.139542 -9,10.279086 -19,33
       .9209832 -1,2.0558169 -1,3.0837254 1,0 4,-2.055817 1,-4.1116336 6,-6.1674516 l 3,-3.083726 q 2,-1.027908 3,0 1,0 1,3.083726 -2,14.3907203 -3,55.5070
       65 -25,-31.865167 -47.999996,-45.2279791 -7,-3.0837258 -1,2.0558172 30.999996,25.6977149 46.999996,56.5349739 -1,1.027907 -2,4.111634 v 4.111634 q -
       10,-2.055817 -21,-6.167451 -6,-3.083727 -23.999996,-1.02791 -5,1.02791 1,2.055818 4.999996,-1.027908 17.999996,3.083726 2,0 5,2.055817 13,4.111634 2
       2,6.167452 h 1 q 3,1.027908 3,3.083725 -1,4.111635 -4,9.251177 z M 80.316564,189.64634 q 3,-4.11163 6,-5.13955 4,-4.11162 0,-6.16744 -3,-2.05582 -10
       ,-6.16746 -13,-9.25117 -21,-13.3628 -6,-4.11165 -1,2.05581 12,10.27908 20,20.55817 0,1.02791 1,2.05582 2,2.05582 3,5.13954 -2,5.13955 2,1.02791 z m 
       -2,-52.42334 q -1,2.05582 0,3.08373 1,0 4,-2.05582 8,-5.13954 2,-10.27908 -11,-14.39073 -11,-24.66982 0,-5.139533 -1,-9.251167 -2,-12.334904 -3,-34.
       948892 -1,-22.613989 0,-49.3396138 0,-9.2511773 9,-20.5581722 l 10,-14.39072 q -1,-5.139543 -5,-4.111634 -7,4.111634 -14,16.446537 -2,3.083726 -4,5.
       139544 -3,4.1116336 -10,13.3628109 -1,6.1674511 6,6.1674511 4,-3.0837253 4,5.139542 -1,51.395431 2,82.232689 -27,-34.948892 -58,-61.674514 -3,-3.083
       729 -4,-2.055821 -1,2.055821 3,5.139546 56,54.479155 70,96.623404 z"
       id="path45"
       style="fill:none;stroke:#000000;stroke-width:1.01386;stroke-opacity:1" /> -->
    <path class="pen line-hsu-1"
       d="M 85.17546,186.85091 67.585276,168.21362 53,156.38628 45.283436,152.32609"/>
    <path class="pen line-hsu-2"
       d="M 83.919018,140.1049 66.014724,108.0243 47.482209,83.276416 23.295706,57.917463 -3.0895706,34.697223 v 0 0"/>
    <path class="pen line-hsu-3"
       d="M 66.016074,108.03966 64.760557,36.563756 V 7.1324979 L 47.183333,14.247748 60.994009,3.8982983 88.301483,-32.971629 v 0 1.6171 0"/>
    <path class="pen line-hsu-4"
       d="M 148.62577,202.1274 141,198.2116 130,176.8126 104.02209,120.55101 77.95092,60.056176"/>
    <path class="pen line-hsu-5"
       d="M 120.35583,173.71315 141,179.73065 217.73006,90.609124 215,98.998057 257.9362,97.636303"/>
    <path class="pen line-hsu-6"
       d="m 111.56074,86.331707 56.85398,27.192123 11.30798,-1.83317 v 0 0"/>
    <path class="pen line-hsu-7"
       d="m 93.65644,56.389818 94.54724,32.99719 11.9362,-2.138704 -1.88467,1.222116"/>
    <path class="pen line-hsu-8"
       d="m 134,94.134648 18,-20.426318 -8.71411,-5.402858 5.33988,-107.546385 -4.39755,24.136827 -23.24417,27.192128 -0.31411,0.305529 v 0"/>
    <path class="pen line-hsu-9"
       d="M 146,60.090784 116.27239,26.447928 85.17546,1.7000431"/>
    <path class="pen line-hsu-10"
       d="m 139,54.30441 58.9411,-61.07251 60.93743,-7.85276"/>
  </g>
</svg>
