<?xml version="1.0" encoding="UTF-8"?>
<svg
version="1.1" 
id="erh" 
xmlns="http://www.w3.org/2000/svg" 
xmlns:xlink="http://www.w3.org/1999/xlink" 
x="0px" 
y="0px"
viewBox="0 0 271 256" 
style="enable-background:new 0 0 271 256;" 
xml:space="preserve">
<style type="text/css">
	.st0{fill:none;}
</style>
  <g transform="matrix(1 0 0 -1 0 204)">
    <!-- <path
       fill="currentColor"
       d="M203 134q9 -5 14 -9q2 -2 3 -2q1 -1 2 -1v-1q3 0 2 -3q0 -3 -4 -3h-3q-1 -1 -2 -1q-5 -1 -7 -3q-27 -30 -47 -32q-10 -3 -12 3q-1 0 -3 2q-4 3 
       -6 5q-6 -1 -17 -5q-5 -2 -8 -3q3 -5 0 -6q-2 -2 -3 -2v1q-2 1 -5 3q-2 1 -6 5q-1 2 -9 12q-14 12 0 27q1 2 1 -2q-3 -6 0 -12 q0 -1 1 -1q40 20 9
       4 26q2 0 4 1q8 3 11 1zM191 125q-9 -1 -19 -1q-9 -1 -17 -2q12 -6 4 -18q12 1 13 -3q0 -2 -4 -3h-1q-14 -4 -22 -8q9 -9 23 0q22 8 28 26q3 10 -5
        9zM151 120q-5 -2 -10 -3q-16 -4 -22 -7q0 -2 5 -6q2 -3 5 -11q3 1 11 4l8 4q-1 1 4 9q6 6 -1 10zM116 109 q-4 -1 -12 -4l-8 -2q4 -8 16 -20l4 3
        q3 2 4 3q1 4 -2 11h-1q-2 3 -1 9zM158 73h1q4 5 18 -1q2 -2 2 -5q0 -5 -2 -4q-5 -3 -8 -9q-7 -15 -18 -30q1 -2 4 -6q18 -22 27 -27q5 -5 18 -3q
        27 4 50 -7q3 -1 3 -2q-1 -1 -4 -1q-2 1 -6 1q-19 2 -45 -1q-8 0 -10 3q-11 4 -26 22 q-2 1 -4 4q-8 9 -11 13q-25 -22 -44 -34q-6 -2 -2 2q29 22
         41 37q-16 19 -25 18h-3q1 1 4 3q9 3 10 3q1 -2 1 -1q6 -4 9 -7q3 -7 8 -11q8 10 16 30q2 10 -6 8q-8 -1 -17 -8q-8 -5 -17 -1q-3 1 -2 2q0 1 4 
         2q3 0 15 4q10 4 19 6zM165 197v-1q10 2 31 -12q3 -4 3 -5 q1 -1 -2 -3l-2 -2q-4 -3 -6 -8q-12 -23 -23 -25q-8 -3 -17 2q-1 0 -1 1q-16 -4 -27 
         -9q-8 -3 -13 0q-5 1 2 2q3 -1 8 2q-16 4 -8 15q-2 1 -4 5q-4 5 -6 6q-5 6 3 19q2 2 0 -6v-1q46 18 62 20zM167 193q-16 -1 -43 -13q-7 -5 -20 -
         4q3 -12 9 -18q1 1 6 3q3 2 5 3q10 2 16 8 q4 4 16 3l2 -2q0 -1 -1 -1q-19 -8 -23 -13q-3 -3 -4 -2q0 1 1 6q-4 -2 -14 -6q-2 -1 -3 -1q2 -5 10 
         -15l18 6h1q4 1 5 4q1 1 10 -2q4 -1 6 -1q16 9 20 33q-1 10 -17 12zM47 180v-1q22 -2 32 -8q2 -2 1 -5q-2 -3 -5 -1q-8 5 -18 3q-5 -1 -5 0q-1 0
          1 3q4 2 -7 7q-4 1 1 2z M47 108q6 2 14 1q4 -4 -2 -8q-25 -5 -46 1q-5 1 0 2q19 -3 34 4zM83 66q-16 -49 -19 -62q-5 -15 -5 -26q-1 -2 -2 -2t
          -3 1q-3 2 -6 6t1 4q5 0 7 10q3 15 25 69q4 7 2 0z"
       id="path2470"
       style="fill:none;stroke:#000000;stroke-opacity:1" /> -->
    <path class="pen line-man-1"
       d="m 38.058896,173.21718 29.21227,-0.94233 19.788957,-9.42332"/>
    <path class="pen line-man-2"
       d="m 13,102 30.398773,-0.0859 24.814724,5.65399"/>
    <path class="pen line-man-3"
       d="m 46.539877,-26.87117 19.160736,45.86013 21.35951,60.3092"/>
    <path class="pen line-man-4"
       d="m 93.34233,182.01227  32.9816,-51.51411"/>
    <path class="pen line-man-5"
       d="M 96.48344,172.27485 165,197 182.8638,188.9227 199,179 191.03067,178.87117 166,141"/>
    <path class="pen line-man-6"
       d="m 110,154 46,21 -26,-18"/>
    <path class="pen line-man-7"
       d="m 104.91005,132.60789 45.31209,14.42849 18.03093,-7.03766"/>
    <path class="pen line-man-8"
       d="M 81.092025,120.13251 118.78528,67.99018"/>
    <path class="pen line-man-9"
       d="m 83.604908,99.40123 61.251532,22.93006 53.08466,7.85276 L 224,118 204.53742,117.93374 186.31902,94.68957 161,79 140,89 v 0"/>
    <path class="pen line-man-10"
       d="M 116,109 128.20859,84.95215"/>
    <path class="pen line-man-11"
       d="m 150.51043,127.04295 8.79509,-13.82086 -7.22454,-19.47485"/>
    <path class="pen line-man-12"
       d="m 112,83 63.63926,24.25399"/>
    <path class="pen line-man-13"
       d="M 122,59 148.93988,68.93252 159,73 c 0,0 18,-1 18,-1 L 156.16442,40.34847 128.20859,6.11043 91.45767,-19.64663"/>
    <path class="pen line-man-14"
       d="M 113.4454,55.42577 198,-22 l 57.1092,10.20613"/>
  </g>
</svg>
